An examination of the interconnection of human domination of the planet and the use of petroleum, and offers solutions for how we can stop our progression down this destructive path.
 
http://www.imdb.com/title/tt0932519/

General 
Complete name : Crude Impact [2006].avi 
Format : AVI 
Format/Info : Audio Video Interleave 
File size : 1.46 GiB 
Duration : 1h 37mn 
Overall bit rate : 2 130 Kbps 
Writing application : VirtualDubMod 1.5.10.2 (build 2540/release) 
Writing library : VirtualDubMod build 2540/release 

Video 
ID : 0 
Format : MPEG-4 Visual 
Format profile : Advanced Simple@L5 
Format settings, BVOP : 2 
Format settings, QPel : No 
Format settings, GMC : No warppoints 
Format settings, Matrix : Default (H.263) 
Codec ID : XVID 
Codec ID/Hint : XviD 
Duration : 1h 37mn 
Bit rate : 1 931 Kbps 
Width : 704 pixels 
Height : 384 pixels 
Display aspect ratio : 1.85:1 
Frame rate : 23.976 fps 
Color space : YUV 
Chroma subsampling : 4:2:0 
Bit depth : 8 bits 
Scan type : Progressive 
Compression mode : Lossy 
Bits/(Pixel*Frame) : 0.298 
Stream size : 1.32 GiB (91%) 
Writing library : XviD 1.1.2 (UTC 2006-11-01) 

Audio 
ID : 1 
Format : AC-3 
Format/Info : Audio Coding 3 
Mode extension : CM (complete main) 
Format settings, Endianness : Big 
Codec ID : 2000 
Duration : 1h 37mn 
Bit rate mode : Constant 
Bit rate : 192 Kbps 
Channel(s) : 2 channels 
Channel positions : Front: L R 
Sampling rate : 48.0 KHz 
Bit depth : 16 bits 
Compression mode : Lossy 
Stream size : 135 MiB (9%) 
Alignment : Split accross interleaves 
Interleave, duration : 80 ms (1.92 video frames) 
Interleave, preload duration : 80 ms 

